:SAMPLES-PER-SECOND 24
:FULLY-SPECIFIED
:DEGREES
435
root  10.4096 38.5821 26.7519 11.6523 38.7529 0.786072
RightUpLeg  -35.9113 32.4192 -27.9646
RightLeg  18.8296 2.95442 0.947442
RightFoot  -16.0453 0.358731 11.1578
RightToes  -2.08645e-008 3.77894e-005 6.81332e-007
Spine  19.5317 -8.4247 -7.64625
Spine1  -2.31946 -12.4962 20.3098
HEad  -47.9097 25.758 -27.5042
LeftShoulder1  5.88735 -12.4397 -30.9193
LeftArm  13.4646 8.63179 -19.8846
LeftForeArm  153.459 -71.8716 -148.097
LeftHand  -0.34681 -2.79919 5.14301
RightShoulder  3.44345 6.30405 29.1794
RightArm  -2.7762 -47.7884 6.40412
RightForeArm  29.4528 63.6321 20.1777
RightHand  -1.00483 7.35339 -9.48027
LeftUpLeg  -15.5929 -30.8451 2.28653
LeftLeg  26.4309 3.66116 2.33293
LeftFoot  -17.6507 -0.147229 -4.64935
LeftToes  1.24767e-006 1.47042e-008 1.32732e-009
436
root  9.96129 37.867 27.953 13.0967 50.4897 2.72485
RightUpLeg  -37.9996 36.3296 -34.1006
RightLeg  20.4169 10.572 4.1928
RightFoot  -19.8607 1.0159 15.4502
RightToes  -2.08645e-008 3.77894e-005 6.81332e-007
Spine  23.4689 -8.74373 -3.71858
Spine1  -3.80575 -11.2567 16.2992
HEad  -51.6382 28.3101 -31.205
LeftShoulder1  6.18407 -12.6969 -32.1708
LeftArm  14.8946 0.938767 -22.2528
LeftForeArm  148.973 -74.4391 -141.928
LeftHand  -0.371602 -3.05473 5.34846
RightShoulder  3.4037 6.37333 28.514
RightArm  -5.50809 -46.3048 6.3984
RightForeArm  31.0898 65.2505 21.7343
RightHand  -1.1689 6.66672 -11.5489
LeftUpLeg  -19.1727 -35.0814 4.97275
LeftLeg  31.6349 -0.0225222 0.352791
LeftFoot  -21.7677 -0.188874 -3.5017
LeftToes  1.24767e-006 1.47042e-008 1.32732e-009
437
root  9.2424 37.3607 29.0841 17.3667 61.8367 5.94034
RightUpLeg  -36.132 30.4249 -31.0992
RightLeg  25.6912 11.7738 5.89621
RightFoot  -20.709 1.14203 15.5862
RightToes  -2.08645e-008 3.77894e-005 6.81332e-007
Spine  28.6612 -8.17213 1.23712
Spine1  -6.82631 -9.26307 14.5661
HEad  -55.6186 30.803 -34.9513
LeftShoulder1  7.24195 -13.5458 -36.4088
LeftArm  16.4232 -4.69251 -24.913
LeftForeArm  140.209 -77.4317 -130.485
LeftHand  -0.41065 -2.9249 5.97176
RightShoulder  3.50394 6.55958 28.8832
RightArm  -8.48058 -41.9876 7.69497
RightForeArm  30.2356 63.8457 20.2682
RightHand  -1.26214 6.56888 -12.53
LeftUpLeg  -25.3461 -39.1151 10.2007
LeftLeg  34.4492 -4.48217 -2.93941
LeftFoot  -23.7267 -0.319597 -4.22969
LeftToes  1.24767e-006 1.47042e-008 1.32732e-009
438
root  8.30877 37.2533 30.3508 29.7012 69.95 14.7825
RightUpLeg  -37.8421 22.3631 -29.1826
RightLeg  29.9224 8.43487 4.99255
RightFoot  -20.7872 0.927463 12.8903
RightToes  -2.08645e-008 3.77894e-005 6.81332e-007
Spine  34.2712 -6.74068 6.68884
Spine1  -12.01 -5.55887 10.6733
HEad  -59.3896 31.7249 -37.8292
LeftShoulder1  8.41827 -14.3635 -40.8573
LeftArm  18.3634 -7.76257 -28.3131
LeftForeArm  121.873 -79.6704 -111.684
LeftHand  -0.531645 -3.65351 7.08378
RightShoulder  3.85756 6.94771 31.0093
RightArm  -13.4145 -33.211 12.1943
RightForeArm  26.4581 58.8711 16.3787
RightHand  -1.40689 7.01109 -13.442
LeftUpLeg  -33.9115 -40.793 16.5416
LeftLeg  33.2978 -5.54414 -3.55243
LeftFoot  -21.0018 -0.354552 -5.68125
LeftToes  1.24767e-006 1.47042e-008 1.32732e-009
439
root  7.36257 37.6685 31.9239 54.6587 73.4726 33.7155
RightUpLeg  -42.7431 13.8323 -30.1728
RightLeg  30.6209 7.76806 4.70805
RightFoot  -18.2537 0.546762 11.0752
RightToes  -2.08645e-008 3.77894e-005 6.81332e-007
Spine  39.0905 -5.56976 11.0695
Spine1  -17.7121 -1.77082 1.07309
HEad  -61.057 31.2439 -38.9859
LeftShoulder1  9.13608 -14.7761 -43.5255
LeftArm  20.0551 -9.99018 -31.8328
LeftForeArm  99.0236 -80.3532 -89.5106
LeftHand  -0.581505 -4.09162 7.39155
RightShoulder  4.10529 7.26922 32.22
RightArm  -17.9059 -20.2644 19.533
RightForeArm  24.8265 54.2444 13.5703
RightHand  -1.58 7.25493 -14.7596
LeftUpLeg  -41.1345 -36.7202 19.0349
LeftLeg  27.7038 3.63122 2.33859
LeftFoot  -15.1567 -0.0534551 -3.78972
LeftToes  1.24767e-006 1.47042e-008 1.32732e-009
440
root  6.62582 38.3441 33.6697 88.1272 73.6934 60.8177
RightUpLeg  -46.0539 6.30628 -31.2091
RightLeg  28.3074 5.54014 3.01836
RightFoot  -13.4954 0.0712482 8.19802
RightToes  -2.08645e-008 3.77894e-005 6.81332e-007
Spine  42.4951 -5.78353 14.5621
Spine1  -21.5429 -0.245562 -9.0019
HEad  -60.0337 31.938 -38.768
LeftShoulder1  9.38157 -14.9037 -44.4288
LeftArm  21.1999 -12.4 -34.8378
LeftForeArm  89.3284 -80.2243 -78.0912
LeftHand  -0.528103 -4.11621 6.72525
RightShoulder  3.94709 7.35313 30.4425
RightArm  -18.8171 -6.55382 28.4598
RightForeArm  27.0705 53.2251 12.8428
RightHand  -1.67136 7.2496 -15.5914
LeftUpLeg  -45.3227 -28.8215 15.2552
LeftLeg  25.3552 13.6293 7.37638
LeftFoot  -11.4242 0.080427 1.16648
LeftToes  1.24767e-006 1.47042e-008 1.32732e-009
441
root  6.23709 39.0187 35.6013 120.518 70.573 88.601
RightUpLeg  -46.4045 2.88152 -32.5403
RightLeg  25.6973 -1.89242 -1.19534
RightFoot  -9.76772 -0.109858 3.46625
RightToes  -2.08645e-008 3.77894e-005 6.81332e-007
Spine  44.5413 -6.67645 16.9754
Spine1  -22.8867 -0.207515 -15.3728
HEad  -58.2407 34.2555 -38.2909
LeftShoulder1  9.23253 -14.8313 -43.8667
LeftArm  22.3859 -13.962 -37.7699
LeftForeArm  92.5914 -80.342 -80.139
LeftHand  -0.547288 -4.65044 6.61751
RightShoulder  3.67429 7.28851 28.0774
RightArm  -14.7327 4.26189 38.1855
RightForeArm  29.702 54.4932 13.2898
RightHand  -1.61344 6.9753 -15.3824
LeftUpLeg  -48.1853 -22.6886 11.0355
LeftLeg  33.3181 12.1224 8.76831
LeftFoot  -12.6721 0.0905508 1.44584
LeftToes  1.24767e-006 1.47042e-008 1.32732e-009
442
root  6.36672 39.4647 37.6314 142.129 65.6268 106.826
RightUpLeg  -46.0616 0.411862 -32.1183
RightLeg  24.7417 -7.93633 -4.19247
RightFoot  -8.1974 -0.0715436 0.581484
RightToes  -2.08645e-008 3.77894e-005 6.81332e-007
Spine  45.1861 -6.63869 18.4389
Spine1  -22.3434 0.561759 -19.3476
HEad  -57.5738 36.366 -38.7869
LeftShoulder1  9.10792 -14.7722 -43.3902
LeftArm  22.9413 -13.8662 -38.9413
LeftForeArm  100.558 -80.4315 -89.2133
LeftHand  -0.510575 -4.79217 6.11626
RightShoulder  3.55754 7.26968 27.0193
RightArm  -7.43127 11.2744 48.8808
RightForeArm  30.267 52.319 12.1197
RightHand  -1.53668 7.48605 -14.1224
LeftUpLeg  -49.1039 -17.4537 10.9093
LeftLeg  47.2878 8.39866 10.0455
LeftFoot  -13.8209 0.12188 1.79967
LeftToes  1.24767e-006 1.47042e-008 1.32732e-009
443
root  7.0363 39.6778 39.4308 157.451 60.6831 118.975
RightUpLeg  -46.0963 -6.52897 -26.9949
RightLeg  24.1323 -8.10575 -4.17087
RightFoot  -8.49227 -0.0273906 -1.27583
RightToes  -2.08645e-008 3.77894e-005 6.81332e-007
Spine  43.9277 -5.74705 20.3193
Spine1  -20.8115 2.18348 -22.7629
HEad  -57.4271 37.5921 -40.0688
LeftShoulder1  9.21145 -14.8205 -43.7892
LeftArm  22.4825 -12.3749 -36.9371
LeftForeArm  115.844 -80.0871 -104.876
LeftHand  -0.376476 -4.44218 4.73424
RightShoulder  3.5952 7.40321 26.9567
RightArm  3.25642 15.8794 59.4688
RightForeArm  28.1987 44.4288 9.04263
RightHand  -1.62158 8.36339 -13.9612
LeftUpLeg  -47.8526 -10.3944 14.8506
LeftLeg  59.497 6.77159 12.779
LeftFoot  -14.0493 0.124936 1.73522
LeftToes  1.24767e-006 1.47042e-008 1.32732e-009
444
root  8.05089 39.8437 40.9393 168.769 53.5105 127.789
RightUpLeg  -45.6362 -16.9428 -20.5472
RightLeg  23.4792 -5.7327 -2.9413
RightFoot  -10.1415 -0.0347085 -3.38364
RightToes  -2.08645e-008 3.77894e-005 6.81332e-007
Spine  41.7063 -5.05291 21.6321
Spine1  -19.2559 3.17902 -25.308
HEad  -56.7295 38.5521 -41.3826
LeftShoulder1  9.19368 -14.8061 -43.7358
LeftArm  22.289 -10.125 -33.7663
LeftForeArm  135.772 -78.2882 -125.261
LeftHand  -0.352014 -4.15972 4.56085
RightShoulder  3.65952 7.56658 27.0546
RightArm  19.4443 19.1182 68.1971
RightForeArm  25.6356 36.6401 6.77174
RightHand  -1.72251 9.08253 -14.107
LeftUpLeg  -44.9963 -3.66374 20.9164
LeftLeg  67.2645 5.00525 13.6349
LeftFoot  -13.9767 0.0972552 0.569543
LeftToes  1.24767e-006 1.47042e-008 1.32732e-009
